PathFileType	4	(X/Y/Z)	5_1_7_p0_0-237.trc
DataRate	CameraRate	NumFrames	NumMarkers	Units	OrigDataRate	OrigDataStartFrame	OrigNumFrames
60.0	60.0	6	27	m	60.0	29	238
Frame#	Time	RHip			RKnee			RAnkle			RBigToe			RSmallToe			RHeel			LHip			LKnee			LAnkle			LBigToe			LSmallToe			LHeel			Neck			Head			Nose			RShoulder			RElbow			RWrist			RThumb			RIndex			RPinky			LShoulder			LElbow			LWrist			LThumb			LIndex			LPinky			
		X1	Y1	Z1	X2	Y2	Z2	X3	Y3	Z3	X4	Y4	Z4	X5	Y5	Z5	X6	Y6	Z6	X7	Y7	Z7	X8	Y8	Z8	X9	Y9	Z9	X10	Y10	Z10	X11	Y11	Z11	X12	Y12	Z12	X13	Y13	Z13	X14	Y14	Z14	X15	Y15	Z15	X16	Y16	Z16	X17	Y17	Z17	X18	Y18	Z18	X19	Y19	Z19	X20	Y20	Z20	X21	Y21	Z21	X22	Y22	Z22	X23	Y23	Z23	X24	Y24	Z24	X25	Y25	Z25	X26	Y26	Z26	X27	Y27	Z27	
29	0.48333333333333334	0.36021554987740795	0.5478162798423682	0.817731145393016	0.3837712930771353	0.6312037121896727	1.2588838375761504	0.3667525238034147	0.790593386856527	1.696620495591475	0.3623377744350071	0.49491872665595066	1.6444916160887877	0.41325803432645736	0.5870124193022103	1.6733808741114118	0.356406567525232	0.8648371424835122	1.7527368879697816	0.16437328002632207	0.5197320068015746	0.8384136419071502	0.19041163091659413	0.61840347498255	1.2796133027204883	0.21677926676763587	0.75565036421733	1.6877045121939946	0.22549429865663345	0.5088722098237559	1.6683226515081733	0.16921346245631463	0.5884820405786817	1.6860697295640112	0.2155571047191167	0.8208895588905541	1.737612614755399	0.20990641125915938	0.43638054856786035	0.30868581145978985	0.23370590625149507	0.33139189680989106	0.061833347820326276	0.25616532033692296	0.29760515880020094	0.20567708202045984	0.3511915983300984	0.484530836152499	0.3786223132251784	0.41892833519328393	0.5041361299280734	0.6374058837423036	0.3898635662079729	0.4129040271714922	0.8628421650630571	0.311606548785143	0.3967667832509942	0.9508138566240272	0.3180839033672629	0.41800514927697574	0.9802476588988837	0.32958220302667396	0.45954153038471035	0.9859097657266525	0.08016021736993577	0.40896115946438283	0.3978604391987873	0.0752749720763868	0.4212345400804883	0.6598798518628343	0.21951757267259386	0.38992578582621096	0.8552940799664296	0.3017849416556127	0.37588662400611145	0.9020814394805877	0.30857679740941674	0.3816260249128894	0.9461863302464015	0.2810627395013582	0.3831903099257587	0.9736520995187007
30	0.5	0.3584055876936	0.5458803059854477	0.8015792665199998	0.38214202187152174	0.6299799523943551	1.2502652234718217	0.3621105686050244	0.7880094116524726	1.696307006688395	0.36133903451898136	0.4943777912624536	1.6439241192042613	0.4112674314779818	0.583814968277676	1.6685194507582952	0.3577334870869045	0.8469991720473051	1.7453534462527702	0.1631122878179744	0.5142419348663745	0.8248002257549598	0.19106479889283623	0.6172781610647902	1.2752199217090014	0.21684696129055925	0.755490102706678	1.6876106424150992	0.22699978256778988	0.5220057915202142	1.6733884936635293	0.17042962786678345	0.6009931183189609	1.6909857282970577	0.21623452927786863	0.8230303118975241	1.7400905686737749	0.20995497721234657	0.4363639604103969	0.3087033090540984	0.23361886608620744	0.3315245130371451	0.06181116593208842	0.2562348389065587	0.29763936123930607	0.20554161502281634	0.35630488961334333	0.47106669115957717	0.3781359933542105	0.4221749920261183	0.5048119771252974	0.6292572801015978	0.3999716218210728	0.42504195716874793	0.8557745600335024	0.32472997080164867	0.41351766402748424	0.9583975802714915	0.32686877457957214	0.4184388538069601	0.9795352949313396	0.3302365666685484	0.46013780738922444	0.986628597710813	0.08016706346619513	0.40925765348245835	0.3979383001227835	0.06882234831385639	0.4334944214879984	0.6616040090842017	0.21417959392729902	0.3779944966578548	0.8580783877863574	0.30043245650652506	0.36482062080443495	0.9043210392846853	0.3054183200297963	0.36251354052159906	0.9509068131359785	0.2767571034085003	0.38237918108045754	0.978025766861668
31	0.5166666666666667	0.3585293216704109	0.5495018589104477	0.8025799036403914	0.3822127530991474	0.6298401825332111	1.2504060148072176	0.36664627935851113	0.7907404592665813	1.6968254898578856	0.36159706886706006	0.495231924575294	1.6444364651690502	0.41050607563944824	0.5758916977516091	1.6688240530336576	0.35191436896668665	0.8636784812348177	1.7531054675575324	0.1567618245652131	0.5309305171063021	0.8281549949772462	0.18997604442673519	0.6189640714226584	1.2794627501726112	0.21583216174858416	0.7576114085691358	1.6928697223366935	0.2270641187964167	0.5218168160082955	1.6733603819885692	0.17051578267284948	0.6007977158905424	1.6909468167451889	0.2161585846482874	0.8233561298470465	1.740247471699986	0.20993184614049445	0.43644157945055034	0.30872386627830933	0.23360215410857169	0.33148948383061094	0.061766482467456314	0.2562725949570386	0.2976735635604637	0.2056502397642784	0.35122936844579633	0.48451529811367416	0.37857213069996326	0.4299977173029654	0.519982192974662	0.6293869339656395	0.4035121355740122	0.4367343534007616	0.860939792224268	0.33429185099084946	0.4425674040119276	0.9709538052317339	0.3354300110014926	0.4455998274971259	0.9838409537019582	0.3421594395098237	0.46126269593345226	0.9844660785043029	0.08016603090344904	0.40912405129048024	0.39790229404750116	0.06230457466962425	0.4458780583095965	0.6631650135730562	0.20366552669720223	0.38874417032615477	0.8575115315340199	0.2850988449563881	0.3766209117571405	0.9165021884595308	0.29657322817070836	0.3582052883515995	0.9504888493868016	0.26278428483315125	0.3909032787475427	0.9821284342858233
32	0.5333333333333333	0.3581031879435643	0.5465462665609329	0.8018061392546332	0.3821602152107194	0.6296133333662801	1.2502517735007443	0.3692168218946479	0.8061815538272413	1.702422758150087	0.36169641919516177	0.49626782935430486	1.6448552720032275	0.41268504203659095	0.588380864126479	1.6735818302874903	0.3579404935303894	0.8474401471414861	1.7457334644663132	0.15459467499673404	0.5173627117812513	0.8264831958800397	0.1899826628921475	0.6196796182289145	1.279311302658211	0.21583481015310374	0.7577796129379529	1.6930041284196482	0.22708293937611326	0.5217019204234677	1.6732708307757684	0.16924311366500072	0.5883852814460181	1.6860144744544605	0.21617096780688513	0.8232275513889272	1.7403816270470829	0.20999640839321326	0.43629662305666234	0.3086606878682257	0.23362051624899724	0.33144283850821005	0.06178730951786764	0.25625153161102976	0.29766534786872095	0.20552822454728553	0.35130035989249836	0.48456033058775716	0.3785539708558512	0.4332871609676809	0.5204198220715878	0.6252917160092626	0.4137999192661698	0.46175579548519385	0.8635603901267207	0.33448756042994915	0.4446916589608703	0.9749632042400481	0.34350537509290996	0.4454780712044061	0.983017220818915	0.3708743887069812	0.4682818801672864	0.9830397425598791	0.08017238017696787	0.4089294450084859	0.39788324322844726	0.05796821552798114	0.44437267689811744	0.6633631955069261	0.1977025964168595	0.3743826546995067	0.8558847030105293	0.284222312562835	0.37792072106074914	0.9174633110887784	0.2799987226540107	0.36486395690052437	0.957653642410265	0.2493811543350632	0.4044251262187576	0.9871464014821745
33	0.55	0.3580342141205768	0.5468166758045763	0.8019276729215861	0.3774209087586686	0.6283360616451203	1.2547921883108037	0.36460455278713266	0.8039814637162366	1.702300125322995	0.36354980441143114	0.5084108323435674	1.6495452187391548	0.4124824123977725	0.5866971258643231	1.6729268544990417	0.35229490060411933	0.8640240302751158	1.7534948205994325	0.149701436921371	0.5147317052843511	0.8259247858085502	0.1886081304958522	0.6227170391730994	1.2878356277571017	0.2156813165136101	0.7577367968723158	1.6928917204804164	0.2262077597873583	0.5230806265656195	1.6692351208043592	0.16741356557225257	0.5911564569156386	1.686745918584853	0.22124131968581673	0.8341062210976878	1.744764100055014	0.21391714597436323	0.4376222648155374	0.3082486987973313	0.23355660523181326	0.3315980971394443	0.06192935155723288	0.2561831873997495	0.2970014606537899	0.20196455403087954	0.35636207852308	0.4711774449923594	0.3781560228356366	0.4382589522206299	0.5248699743814798	0.6292371971006018	0.41466409306088425	0.4616037008625286	0.8673305554814915	0.3523536845604933	0.4321890335216965	0.9740052642677455	0.36512914477020514	0.4066772760771909	0.9757914714910216	0.3942817513226137	0.4831035839683593	0.983536124303676	0.08612483477423452	0.3967079298471147	0.39743963163169505	0.057887010476647786	0.4441350965488133	0.6632401241813073	0.1813152783933456	0.35917238962604303	0.8589279058579629	0.26911740679972074	0.37543805324566404	0.92528190521727	0.2700266705959603	0.374786082078983	0.961168297213606	0.22622481428300578	0.4316010740890175	0.9984949073928867
34	0.5666666666666667	0.35809108671032897	0.5466463285329998	0.8016436757439418	0.3753002955385572	0.6134038597127592	1.246588984478394	0.36463847028922486	0.8038509444353303	1.702240000034196	0.3617508944659585	0.49738109081020304	1.6452496801662286	0.41193783277645124	0.5862795815737022	1.6696692306503274	0.358144342448583	0.847499376732556	1.7458153933936214	0.15005939728675005	0.5136611690605732	0.8215853932898209	0.18922539686211162	0.6219632188561799	1.2833206514791302	0.21578274958200888	0.7580291392180173	1.693092386544221	0.22715883097899514	0.5213931469034597	1.673031531290835	0.16967403041184506	0.6018964321831248	1.6864388935546133	0.22133281658455697	0.8348917921954003	1.7448033763331763	0.20989950229657364	0.43628156168976934	0.3086355195935882	0.23364746484380244	0.3313045573797951	0.06190207492687123	0.25588546792022426	0.29761244350016053	0.2020212250686887	0.35130728723062227	0.4847401951431536	0.37855933703548367	0.4384221223950236	0.5254376125069624	0.6295330406268477	0.41557319863649855	0.4608773159621948	0.863444829050538	0.3691007208604976	0.40824504606019507	0.9676422230905531	0.3816638589090006	0.4080622555289308	0.9735118878501926	0.41557558529399274	0.48344710881998915	0.9880931898410866	0.08020300719911841	0.4088731842548294	0.39798406913034645	0.05836101708783965	0.4429847340950846	0.6600952558880372	0.17745319230933781	0.3537520764639929	0.8584083794245422	0.25368993041447385	0.3982964611614254	0.9306609920257951	0.2589569930770329	0.372647878463705	0.9669381943888978	0.21118882655413734	0.4378994957855637	0.996840366656123
